#!OML:ASF I:\Actors\actors\Patient Classification 2\Patient 1\Session 1\actor1.ASF
:FULLY-SPECIFIED
:DEGREES
189
root -0.594022 18.679 5.52693 -0.785386 -3.15568 -3.54735
lowerback 4.12303 1.59631 0.890846
upperback -0.550703 2.16629 -0.274817
thorax -2.83296 1.06296 -0.921802
lowerneck -14.7927 3.32067 5.80966
upperneck 34.8176 4.21749 -2.75633
head 14.7029 2.20966 -1.44792
rclavicle -1.17873e-014 7.95139e-015
rhumerus -32.9721 40.5341 -96.5713
rradius 106.374
rwrist 24.8144
rhand -24.332 -39.2974
rfingers 7.12502
rthumb 2.15669 -69.2662
lclavicle -1.17873e-014 7.95139e-015
lhumerus -31.4375 -13.859 100.59
lradius 103.751
lwrist 80.9301
lhand -11.4813 -22.0092
lfingers 7.12502
lthumb 14.5568 7.46002
rfemur 0 0 0
rtibia 0
rfoot 0 0
rtoes 0
lfemur -3.54545 -4.78616 -11.2881
ltibia 23.3347
lfoot -23.2224 12.5144
ltoes -54.8675
190
root -0.594315 18.6783 5.52827 -0.812149 -3.15384 -3.51586
lowerback 4.01146 1.70653 0.85238
upperback -0.569146 2.31187 -0.224621
thorax -2.78973 1.13678 -0.85453
lowerneck -14.7821 3.25235 5.73786
upperneck 34.825 4.20429 -2.92385
head 14.7045 2.17313 -1.50706
rclavicle -1.57226e-014 6.36111e-015
rhumerus -30.8279 41.6691 -95.4243
rradius 106.279
rwrist 24.9261
rhand -24.7961 -38.6852
rfingers 7.12502
rthumb 1.70845 -68.6581
lclavicle -1.57226e-014 6.36111e-015
lhumerus -31.2034 -14.3954 100.939
lradius 103.957
lwrist 80.9401
lhand -11.9697 -22.2085
lfingers 7.12502
lthumb 14.0862 7.29413
rfemur 0 0 0
rtibia 0
rfoot 0 0
rtoes 0
lfemur -3.50033 -4.86885 -11.3408
ltibia 23.3175
lfoot -23.2493 12.5855
ltoes -54.8607
191
root -0.594824 18.6776 5.53036 -0.84599 -3.09023 -3.48325
lowerback 3.89842 1.82433 0.891589
upperback -0.598063 2.46951 -0.243721
thorax -2.7504 1.21481 -0.902263
lowerneck -14.8049 3.18495 5.67602
upperneck 34.9139 4.15436 -2.99122
head 14.7477 2.13629 -1.533
rclavicle -1.21057e-014 5.96354e-015
rhumerus -29.0453 42.5929 -94.4223
rradius 106.049
rwrist 24.9639
rhand -24.8062 -38.6427
rfingers 7.12502
rthumb 1.69872 -68.6157
lclavicle -1.21057e-014 5.96354e-015
lhumerus -31.0137 -15.0149 101.233
lradius 104.078
lwrist 80.8423
lhand -12.3752 -22.4065
lfingers 7.12502
lthumb 13.6955 7.12284
rfemur 0 0 0
rtibia 0
rfoot 0 0
rtoes 0
lfemur -3.47586 -4.99792 -11.3953
ltibia 23.3366
lfoot -23.2969 12.622
ltoes -54.813
192
root -0.596155 18.6771 5.53646 -0.866132 -2.95105 -3.51669
lowerback 3.73906 1.91851 1.02505
upperback -0.618419 2.59889 -0.288806
thorax -2.67115 1.2775 -1.02509
lowerneck -14.9016 3.1289 5.63593
upperneck 35.0595 4.07525 -2.95884
head 14.8314 2.10304 -1.52605
rclavicle 2.97494e-014 2.38542e-015
rhumerus -27.5451 43.4399 -93.5481
rradius 105.751
rwrist 24.913
rhand -24.7303 -38.6166
rfingers 7.12502
rthumb 1.77201 -68.589
lclavicle 2.97494e-014 2.38542e-015
lhumerus -30.8335 -15.643 101.456
lradius 104.181
lwrist 80.6221
lhand -12.809 -22.7067
lfingers 7.12502
lthumb 13.2773 6.85036
rfemur 0 0 0
rtibia 0
rfoot 0 0
rtoes 0
lfemur -3.47983 -5.08837 -11.3607
ltibia 23.3738
lfoot -23.3295 12.5624
ltoes -54.7881
193
root -0.597047 18.6755 5.54618 -0.87743 -2.73537 -3.67844
lowerback 3.56187 1.9741 1.3285
upperback -0.637586 2.68404 -0.327453
thorax -2.57367 1.31596 -1.23235
lowerneck -14.9694 3.0714 5.57675
upperneck 35.188 3.96872 -2.8406
head 14.8965 2.06754 -1.48483
rclavicle -4.47576e-015 -3.97569e-015
rhumerus -26.3546 44.3312 -92.841
rradius 105.542
rwrist 24.5897
rhand -24.4425 -38.8044
rfingers 7.12502
rthumb 2.04998 -68.7743
lclavicle -4.47576e-015 -3.97569e-015
lhumerus -30.6486 -16.217 101.621
lradius 104.244
lwrist 80.4456
lhand -13.1826 -23.0315
lfingers 7.12502
lthumb 12.9171 6.54868
rfemur 0 0 0
rtibia 0
rfoot 0 0
rtoes 0
lfemur -3.49909 -5.092 -11.1655
ltibia 23.4101
lfoot -23.2511 12.4043
ltoes -54.8936
